# Blender 4.1.1
# www.blender.org
mtllib House.mtl
o Cube
v -3.110076 1.000000 3.103457
v -2.987000 -1.000000 -2.987000
v 2.987000 -1.000000 2.987000
v 3.075804 1.000000 -3.103457
v 0.000000 -1.000000 2.987000
v -2.987000 0.950000 2.987000
v -2.987000 0.950000 -2.987000
v 2.987000 0.950000 -2.987000
v 2.987000 0.950000 2.987000
v 0.000000 0.950000 2.987000
v 0.000000 0.950000 -2.987000
v -1.493500 -1.000000 2.987000
v -1.493500 0.950000 -2.987000
v -1.493500 0.950000 2.987000
v -2.987000 0.950000 -0.995667
v -2.987000 0.950000 0.995667
v -3.110076 1.000000 -3.103457
v 3.075804 1.000000 3.103457
v 0.000000 3.100000 -3.103457
v 0.000000 3.100000 3.103457
v 0.000000 -1.000000 -0.995667
v 0.000000 -1.000000 0.995667
v -1.493500 -1.000000 0.995667
v -1.493500 -1.000000 -0.995667
v -3.110076 1.000000 -0.995667
v -3.110076 1.000000 0.995667
v -3.110076 1.697869 3.103457
v -3.110076 1.697869 -3.103457
v 0.000000 3.901476 -3.103457
v 3.075804 1.697869 -3.103457
v 3.075804 1.697869 3.103457
v 0.000000 3.901476 3.103457
v -1.493500 2.050000 3.103457
v -1.493500 2.050000 -3.103457
v 3.075804 1.000000 0.995667
v 3.075804 1.000000 -0.995667
v -1.609957 2.799673 3.103457
v -1.609957 2.799673 -3.103457
v 2.987000 0.950000 0.995667
v 2.987000 0.950000 -0.995667
v 2.987000 -1.000000 -0.995667
v 2.987000 -1.000000 0.995667
v -2.987000 -1.000000 0.995667
v -2.987000 -1.000000 -0.995667
v -2.078884 2.547842 0.644338
v 3.075804 1.375708 -1.126592
v 3.075804 1.383301 1.021118
v -1.081489 3.169382 -0.626282
v -1.536130 2.860426 -0.573753
v -1.594856 2.822325 0.587720
v -3.110076 2.007421 1.124660
v -3.110076 2.004208 -1.022634
v -0.224356 3.710487 -1.104896
v -0.215669 3.644456 1.030665
v -1.542207 2.857347 -1.063765
v -1.587917 2.825939 1.077662
v -2.987000 -1.000000 2.987000
v 2.987000 -1.000000 -2.987000
v 0.000000 -1.000000 -2.987000
v -1.493500 -1.000000 -2.987000
v -2.012976 2.537694 -0.518659
v -1.086649 3.111810 0.528138
v -1.533507 3.420166 -0.573067
v -1.592232 3.420166 0.588405
v -2.076261 3.420166 0.645024
v -2.010353 3.420166 -0.517974
v -1.078866 3.420166 -0.625596
v -1.084025 3.420166 0.528824
v -1.533507 5.420166 -0.573067
v -1.592232 5.420166 0.588405
v -2.076261 5.420166 0.645024
v -2.010353 5.420166 -0.517974
v -1.078866 5.420166 -0.625596
v -1.084025 5.420166 0.528824
v -1.493500 2.050000 -3.355981
v 0.000000 3.100000 -3.355981
v 3.075804 1.000000 3.355981
v 0.000000 3.100000 3.355981
v -3.110076 1.000000 3.355981
v -3.110076 1.697869 3.355981
v 0.000000 3.901476 -3.355981
v 3.075804 1.697869 -3.355981
v -1.609957 2.799673 3.355981
v -1.609957 2.799673 -3.355981
v 3.075804 1.697869 3.355981
v 0.000000 3.901476 3.355981
v -3.110076 1.000000 -3.355981
v -3.110076 1.697869 -3.355981
v -1.493500 2.050000 3.355981
v 3.075804 1.000000 -3.355981
vn 0.4906 -0.8714 -0.0000
vn -0.0359 -0.1038 -0.9940
vn -0.3764 -0.9265 -0.0000
vn 0.0646 -0.1914 0.9794
vn -0.0359 -0.1038 0.9940
vn 0.0251 -0.0715 -0.9971
vn -0.0000 -0.0000 -1.0000
vn -0.0000 -0.0000 1.0000
vn 1.0000 -0.0000 -0.0000
vn -1.0000 -0.0000 -0.0000
vn 0.0646 -0.1914 -0.9794
vn 0.0251 -0.0715 0.9971
vn -0.5343 0.8426 0.0677
vn 0.5682 0.8107 -0.1410
vn 0.5447 -0.8386 -0.0000
vn 0.5824 0.8129 -0.0000
vn -0.5415 0.8404 -0.0217
vn -0.0000 -1.0000 -0.0000
vn -0.5552 0.8317 0.0059
vn 0.5748 0.8068 0.1366
vn 0.5719 0.8202 0.0100
vn -0.5369 0.8411 -0.0655
vn -0.0000 1.0000 -0.0000
vn -0.4503 0.8928 -0.0126
vn -0.5278 0.8487 0.0325
vn -0.5489 0.8357 -0.0181
vn -0.5082 0.8611 -0.0157
vn -0.4940 0.8657 0.0810
vn -0.4791 0.8775 -0.0203
vn -0.1156 0.0024 -0.9933
vn -0.1152 0.0014 -0.9933
vn -0.1148 -0.0000 -0.9934
vn -0.9984 0.0030 -0.0566
vn 0.1166 -0.0013 0.9932
vn 0.1171 -0.0022 0.9931
vn 0.9999 -0.0094 0.0042
vn -0.9984 -0.0000 -0.0566
vn 0.1162 -0.0000 0.9932
vn 0.1164 -0.0000 0.9932
vn 1.0000 -0.0000 0.0045
vn 0.5751 -0.8181 -0.0000
vn -0.5648 0.8252 -0.0000
vn -0.5920 0.8060 -0.0000
vn -0.5639 -0.8259 -0.0000
vt 0.500000 0.666667
vt 0.625000 0.666667
vt 0.625000 0.750000
vt 0.500000 0.750000
vt 0.500000 0.375000
vt 0.625000 0.375000
vt 0.625000 0.500000
vt 0.500000 0.500000
vt 0.500000 0.166667
vt 0.625000 0.500000
vt 0.625000 0.250000
vt 0.500000 0.250000
vt 0.500000 0.937500
vt 0.625000 0.937500
vt 0.625000 1.000000
vt 0.500000 1.000000
vt 0.625000 0.875000
vt 0.500000 0.875000
vt 0.500000 0.312500
vt 0.625000 0.312500
vt 0.375000 0.312500
vt 0.375000 0.375000
vt 0.375000 0.750000
vt 0.375000 0.875000
vt 0.375000 0.937500
vt 0.375000 1.000000
vt 0.375000 0.666667
vt 0.375000 0.500000
vt 0.375000 0.166667
vt 0.375000 0.250000
vt 0.500000 0.083333
vt 0.625000 0.750000
vt 0.500000 0.000000
vt 0.875000 0.750000
vt 0.875000 0.666667
vt 0.375000 0.583333
vt 0.500000 0.583333
vt 0.375000 0.083333
vt 0.375000 0.000000
vt 0.812500 0.666667
vt 0.812500 0.750000
vt 0.750000 0.666667
vt 0.750000 0.750000
vt 0.875000 0.583333
vt 0.875000 0.500000
vt 0.000000 0.000000
vt 0.625000 0.583333
vt 0.750000 0.500000
vt 0.812500 0.500000
vt 0.812500 0.583333
vt 0.750000 0.583333
vt 0.855696 0.647591
vt 0.855531 0.602406
vt 0.769451 0.602465
vt 0.769286 0.647533
vt 0.811488 0.602441
vt 0.813568 0.647558
s 0
f 39/1/1 35/2/1 18/3/1 9/4/1
f 11/5/2 19/6/2 4/7/2 8/8/2
f 15/9/3 25/10/3 17/11/3 7/12/3
f 14/13/4 33/14/4 1/15/4 6/16/4
f 9/4/5 18/3/5 20/17/5 10/18/5
f 13/19/6 34/20/6 19/6/6 11/5/6
f 60/21/7 13/19/7 11/5/7 59/22/7
f 3/23/8 9/4/8 10/18/8 5/24/8
f 12/25/8 14/13/8 6/16/8 57/26/8
f 42/27/9 39/1/9 9/4/9 3/23/9
f 59/22/7 11/5/7 8/8/7 58/28/7
f 44/29/10 15/9/10 7/12/10 2/30/10
f 2/30/7 7/12/7 13/19/7 60/21/7
f 7/12/11 17/11/11 34/20/11 13/19/11
f 10/18/12 20/17/12 33/14/12 14/13/12
f 16/31/3 26/32/3 25/10/3 15/9/3
f 6/33/3 1/15/3 26/32/3 16/31/3
f 18/3/9 31/3/9 85/3/9 77/3/9
f 27/34/10 51/35/10 26/32/10 1/15/10
f 41/36/9 40/37/9 39/1/9 42/27/9
f 58/28/9 8/8/9 40/37/9 41/36/9
f 43/38/10 16/31/10 15/9/10 44/29/10
f 57/39/10 6/33/10 16/31/10 43/38/10
f 56/40/13 51/35/13 27/34/13 37/41/13
f 47/2/14 54/42/14 32/43/14 31/3/14
f 26/32/10 51/35/10 52/44/10 25/10/10
f 28/45/10 17/11/10 25/10/10 52/44/10
f 1/15/15 33/14/15 89/14/15 79/15/15
f 34/20/15 17/11/15 87/11/15 75/20/15
f 31/3/16 32/43/16 86/43/16 85/3/16
f 54/42/17 56/40/17 37/41/17 32/43/17
f 44/46/18 24/46/18 23/46/18 43/46/18
f 2/46/18 60/46/18 24/46/18 44/46/18
f 4/7/9 30/7/9 46/47/9 36/47/9
f 29/48/19 38/49/19 55/50/19 53/51/19
f 31/3/9 18/3/9 35/2/9 47/2/9
f 47/2/9 35/2/9 36/47/9 46/47/9
f 40/37/1 36/47/1 35/2/1 39/1/1
f 8/8/1 4/7/1 36/47/1 40/37/1
f 30/7/20 29/48/20 53/51/20 46/47/20
f 46/47/21 53/51/21 54/42/21 47/2/21
f 38/49/22 28/45/22 52/44/22 55/50/22
f 24/46/23 23/46/23 22/46/23 21/46/23
f 60/46/23 24/46/23 21/46/23 59/46/23
f 22/46/23 42/46/23 41/46/23 21/46/23
f 5/46/23 3/46/23 42/46/23 22/46/23
f 45/52/24 61/53/24 52/44/24 51/35/24
f 48/54/25 62/55/25 54/42/25 53/51/25
f 49/56/26 48/54/26 53/51/26 55/50/26
f 62/55/27 50/57/27 56/40/27 54/42/27
f 61/53/28 49/56/28 55/50/28 52/44/28
f 50/57/29 45/52/29 51/35/29 56/40/29
f 43/46/18 23/46/18 12/46/18 57/46/18
f 23/46/23 12/46/23 5/46/23 22/46/23
f 21/46/23 41/46/23 58/46/23 59/46/23
f 48/54/30 49/56/30 63/56/30 67/54/30
f 49/56/31 61/53/31 66/53/31 63/56/31
f 67/54/32 63/56/32 69/56/32 73/54/32
f 63/56/32 66/53/32 72/53/32 69/56/32
f 61/53/33 45/52/33 65/52/33 66/53/33
f 45/52/34 50/57/34 64/57/34 65/52/34
f 50/57/35 62/55/35 68/55/35 64/57/35
f 62/55/36 48/54/36 67/54/36 68/55/36
f 73/54/23 69/56/23 70/57/23 74/55/23
f 69/56/23 72/53/23 71/52/23 70/57/23
f 66/53/37 65/52/37 71/52/37 72/53/37
f 65/52/38 64/57/38 70/57/38 71/52/38
f 64/57/39 68/55/39 74/55/39 70/57/39
f 68/55/40 67/54/40 73/54/40 74/55/40
f 33/14/41 20/17/41 78/17/41 89/14/41
f 38/49/42 29/48/42 81/48/42 84/49/42
f 79/15/8 89/14/8 83/41/8 80/34/8
f 88/45/7 84/49/7 75/20/7 87/11/7
f 76/6/7 75/20/7 84/49/7 81/48/7
f 82/7/7 90/7/7 76/6/7 81/48/7
f 89/14/8 78/17/8 86/43/8 83/41/8
f 78/17/8 77/3/8 85/3/8 86/43/8
f 29/48/16 30/7/16 82/7/16 81/48/16
f 32/43/42 37/41/42 83/41/42 86/43/42
f 17/11/10 28/45/10 88/45/10 87/11/10
f 19/6/41 34/20/41 75/20/41 76/6/41
f 28/45/43 38/49/43 84/49/43 88/45/43
f 20/17/44 18/3/44 77/3/44 78/17/44
f 4/7/44 19/6/44 76/6/44 90/7/44
f 37/41/43 27/34/43 80/34/43 83/41/43
f 30/7/9 4/7/9 90/7/9 82/7/9
f 27/34/10 1/15/10 79/15/10 80/34/10
